<svg width="12" height="12" viewBox="0 0 12 12" fill="none" xmlns="http://www.w3.org/2000/svg">
<path fill-rule="evenodd" clip-rule="evenodd" d="M4.87138 1.72005C4.87138 1.3888 4.66725 1.09182 4.35799 0.97315C4.04874 0.854478 3.69833 0.938667 3.47674 1.18488L0.90532 4.04205C0.609754 4.37046 0.63638 4.87629 0.964789 5.17185C1.2932 5.46742 1.79903 5.44079 2.0946 5.11238L3.27138 3.80483V10.2916C3.27138 10.7334 3.62955 11.0916 4.07138 11.0916C4.51321 11.0916 4.87138 10.7334 4.87138 10.2916V1.72005ZM8.72867 1.72005C8.72867 1.27822 8.3705 0.920047 7.92867 0.920047C7.48684 0.920047 7.12867 1.27822 7.12867 1.72005V10.2916C7.12867 10.6228 7.33281 10.9198 7.64206 11.0384C7.95131 11.1571 8.30172 11.0729 8.52331 10.8267L11.0947 7.96955C11.3903 7.64114 11.3637 7.13531 11.0353 6.83974C10.7069 6.54418 10.201 6.5708 9.90545 6.89921L8.72867 8.20677V1.72005Z" fill="#161616"/>
</svg>
